<svg id="SvgjsSvg1017" width="288" height="288" xmlns="http://www.w3.org/2000/svg" version="1.1" xmlns:xlink="http://www.w3.org/1999/xlink" xmlns:svgjs="http://svgjs.com/svgjs"><defs id="SvgjsDefs1018"></defs><g id="SvgjsG1019"><svg xmlns="http://www.w3.org/2000/svg" viewBox="0 0 45 45" width="288" height="288"><path fill-rule="evenodd" d="M30.513 33.303H14.44c-1.51 0-2.732-1.233-2.732-2.706 0-1.489 1.223-2.707 2.732-2.707h16.072a2.72 2.72 0 0 1 2.715 2.707c0 1.473-1.222 2.706-2.715 2.706M14.44 11.623h7.908c1.509 0 2.731 1.217 2.731 2.705a2.735 2.735 0 0 1-2.731 2.721H14.44a2.735 2.735 0 0 1-2.732-2.72c0-1.489 1.223-2.706 2.732-2.706m29.411 5.788c-.95-.407-5.024.045-6.156-.978-.8-.736-.85-2.07-1.162-3.848-.522-2.979-.74-3.654-1.283-4.827C33.274 3.578 28.537 0 24.234 0h-9.975C6.411 0-.001 6.405-.001 14.223v16.584C-.001 38.61 6.411 45 14.259 45h16.388c7.848 0 14.216-6.39 14.262-14.193l.09-11.487s0-1.42-1.148-1.91" fill="#ffffff" class="color000 svgShape"></path></svg></g></svg>