<svg width="24" height="24" viewBox="0 0 24 24" fill="none" xmlns="http://www.w3.org/2000/svg">
<g opacity="1">
<path d="M21.9698 6.46378C21.4537 7.15213 20.83 7.75258 20.1226 8.24195C20.1226 8.42177 20.1226 8.60158 20.1226 8.79139C20.1282 12.0568 18.8239 15.1879 16.5019 17.4828C14.18 19.7777 11.0347 21.0443 7.77114 20.9988C5.8844 21.0051 4.02183 20.5743 2.32932 19.7401C2.23806 19.7003 2.1792 19.61 2.17955 19.5103V19.4005C2.17955 19.257 2.29578 19.1407 2.43916 19.1407C4.29377 19.0796 6.08222 18.4366 7.55147 17.3026C5.87279 17.2688 4.3624 16.2744 3.66731 14.7453C3.6322 14.6617 3.64313 14.5659 3.69616 14.4925C3.74918 14.419 3.83663 14.3785 3.92692 14.3856C4.43711 14.4369 4.9524 14.3894 5.44464 14.2458C3.59151 13.8611 2.1991 12.3227 1.99982 10.4397C1.99274 10.3494 2.03322 10.2619 2.10664 10.2088C2.18005 10.1558 2.2758 10.1448 2.35928 10.18C2.85658 10.3994 3.39341 10.515 3.93691 10.5196C2.31313 9.45384 1.61177 7.42672 2.22948 5.58469C2.29324 5.4057 2.44643 5.27347 2.63275 5.2366C2.81907 5.19972 3.01104 5.26365 3.13811 5.40487C5.32929 7.73695 8.34002 9.12662 11.5355 9.28088C11.4536 8.95427 11.4134 8.61862 11.4157 8.28191C11.4455 6.51636 12.538 4.94357 14.1815 4.29986C15.825 3.65615 17.6943 4.06893 18.9144 5.34494C19.746 5.18651 20.55 4.90716 21.3008 4.51579C21.3558 4.48145 21.4255 4.48145 21.4805 4.51579C21.5148 4.57081 21.5148 4.64058 21.4805 4.6956C21.1169 5.52835 20.5025 6.2268 19.7232 6.69355C20.4056 6.6144 21.0761 6.45341 21.7201 6.21404C21.7744 6.17713 21.8456 6.17713 21.8999 6.21404C21.9453 6.23482 21.9793 6.27457 21.9927 6.32269C22.0062 6.37081 21.9978 6.42242 21.9698 6.46378Z" fill="white"/>
</g>
</svg>
